<svg viewBox="0 0 100 100" xmlns="http://www.w3.org/2000/svg">
  <rect width="100" height="100" rx="18" fill="#2a2620"/>
  <rect x="18" y="26" width="13" height="13" rx="2" fill="#f5efe1" opacity="0.85"/>
  <rect x="35" y="26" width="13" height="13" rx="2" fill="#f5efe1" opacity="0.85"/>
  <rect x="52" y="26" width="13" height="13" rx="2" fill="#f5efe1" opacity="0.85"/>
  <rect x="69" y="26" width="13" height="13" rx="2" fill="#f5efe1" opacity="0.85"/>
  <rect x="18" y="43" width="13" height="13" rx="2" fill="#f5efe1" opacity="0.85"/>
  <rect x="35" y="43" width="13" height="13" rx="2" fill="#c2553c"/>
  <rect x="52" y="43" width="13" height="13" rx="2" fill="#f5efe1" opacity="0.85"/>
  <rect x="69" y="43" width="13" height="13" rx="2" fill="#f5efe1" opacity="0.85"/>
  <rect x="18" y="60" width="13" height="13" rx="2" fill="#f5efe1" opacity="0.85"/>
  <rect x="35" y="60" width="13" height="13" rx="2" fill="#f5efe1" opacity="0.85"/>
  <rect x="52" y="60" width="13" height="13" rx="2" fill="#f5efe1" opacity="0.85"/>
  <rect x="69" y="60" width="13" height="13" rx="2" fill="#f5efe1" opacity="0.85"/>
</svg>
